<?xml version="1.0" encoding="UTF-8" standalone="no"?>
<!-- Created with Inkscape (http://www.inkscape.org/) -->

<svg
   width="7559.0552"
   height="7559.0552"
   viewBox="0 0 2000 2000"
   version="1.1"
   id="svg5"
   inkscape:export-filename="mountain.png"
   inkscape:export-xdpi="96"
   inkscape:export-ydpi="96"
   inkscape:version="1.2.2 (732a01da63, 2022-12-09, custom)"
   sodipodi:docname="img.svg"
   xmlns:inkscape="http://www.inkscape.org/namespaces/inkscape"
   xmlns:sodipodi="http://sodipodi.sourceforge.net/DTD/sodipodi-0.dtd"
   xmlns:xlink="http://www.w3.org/1999/xlink"
   xmlns="http://www.w3.org/2000/svg"
   xmlns:svg="http://www.w3.org/2000/svg">
  <sodipodi:namedview
     id="namedview7"
     pagecolor="#ffffff"
     bordercolor="#000000"
     borderopacity="0.25"
     inkscape:showpageshadow="2"
     inkscape:pageopacity="0.0"
     inkscape:pagecheckerboard="0"
     inkscape:deskcolor="#d1d1d1"
     inkscape:document-units="px"
     showgrid="false"
     inkscape:zoom="0.18930626"
     inkscape:cx="1523.9855"
     inkscape:cy="2691.406"
     inkscape:window-width="1846"
     inkscape:window-height="1016"
     inkscape:window-x="74"
     inkscape:window-y="27"
     inkscape:window-maximized="1"
     inkscape:current-layer="layer2" />
  <defs
     id="defs2">
    <linearGradient
       inkscape:collect="always"
       id="linearGradient1430">
      <stop
         style="stop-color:#05ca31;stop-opacity:1;"
         offset="0"
         id="stop1426" />
      <stop
         style="stop-color:#05ca31;stop-opacity:0;"
         offset="1"
         id="stop1428" />
    </linearGradient>
    <linearGradient
       inkscape:collect="always"
       id="linearGradient1276">
      <stop
         style="stop-color:#d63384;stop-opacity:1;"
         offset="0"
         id="stop1272" />
      <stop
         style="stop-color:#d6c133;stop-opacity:0.49803922;"
         offset="0.45525673"
         id="stop1334" />
      <stop
         style="stop-color:#d67433;stop-opacity:0.24705882;"
         offset="0.74481159"
         id="stop1336" />
      <stop
         style="stop-color:#ea331f;stop-opacity:0.12156864;"
         offset="0.99989998"
         id="stop1338" />
      <stop
         style="stop-color:#fe4d0b;stop-opacity:0;"
         offset="1"
         id="stop1274" />
    </linearGradient>
    <linearGradient
       inkscape:collect="always"
       xlink:href="#linearGradient1276"
       id="linearGradient1278"
       x1="145.61858"
       y1="92.737259"
       x2="64.445335"
       y2="207.32481"
       gradientUnits="userSpaceOnUse"
       gradientTransform="translate(-18.967083,-13.810551)" />
    <linearGradient
       inkscape:collect="always"
       xlink:href="#linearGradient1430"
       id="linearGradient1432"
       x1="236.50134"
       y1="426.8132"
       x2="279.08319"
       y2="-28.293182"
       gradientUnits="userSpaceOnUse" />
    <linearGradient
       inkscape:collect="always"
       xlink:href="#linearGradient1276"
       id="linearGradient4136"
       gradientUnits="userSpaceOnUse"
       gradientTransform="matrix(-1,0,0,1,560.31175,-13.238968)"
       x1="145.61858"
       y1="92.737259"
       x2="64.445335"
       y2="207.32481" />
  </defs>
  <g
     inkscape:label="grass"
     inkscape:groupmode="layer"
     id="layer1">
    <path
       style="fill:url(#linearGradient1278);fill-opacity:1;stroke-width:0"
       d="M 1.4786444,123.30514 29.466752,111.3279 66.791345,85.923228 91.53797,89.064448 c 0,0 9.01768,-15.292993 10.63533,-15.292993 1.61765,0 22.76606,2.382385 22.76606,2.382385 l 2.59847,33.90872 25.13398,-6.27288 8.04026,10.5752 16.66471,-3.39122 8.59497,2.71229 6.78439,10.5896 z"
       id="path1270"
       inkscape:export-filename="grass.png"
       inkscape:export-xdpi="96"
       inkscape:export-ydpi="96" />
    <path
       style="fill:url(#linearGradient4136);fill-opacity:1;stroke-width:0"
       d="M 539.86603,123.87673 511.87792,111.8995 474.55333,86.494812 449.8067,89.636032 c 0,0 -9.01768,-15.292993 -10.63533,-15.292993 -1.61765,0 -22.76606,2.382385 -22.76606,2.382385 l -2.59847,33.908736 -25.13398,-6.27288 -8.04026,10.57519 -16.66471,-3.39121 -8.59497,2.71228 -6.78439,10.5896 z"
       id="path1270-5"
       inkscape:export-filename="mountain.png"
       inkscape:export-xdpi="96"
       inkscape:export-ydpi="96" />
    <rect
       style="fill:url(#linearGradient1432);stroke-width:0;fill-opacity:1"
       id="rect1424"
       width="538.52771"
       height="248.43262"
       x="0.84426957"
       y="123.2707" />
  </g>
  <g
     inkscape:groupmode="layer"
     id="layer2"
     inkscape:label="motobike">
    <rect
       style="fill:#000000;fill-opacity:1;stroke-width:0"
       id="rect5065"
       width="28.941622"
       height="10.161602"
       x="-115.83792"
       y="485.53394"
       transform="matrix(0.97749546,-0.21095644,0.30259602,0.95311891,0,0)"
       inkscape:export-filename="../f64c6916/motobilke.png"
       inkscape:export-xdpi="96"
       inkscape:export-ydpi="96" />
    <rect
       style="fill:#000000;fill-opacity:1;stroke-width:0"
       id="rect5065-6"
       width="30.630457"
       height="10.114407"
       x="357.073"
       y="448.5582"
       transform="matrix(0.99336886,0.11497093,-0.19755678,0.98029145,0,0)" />
    <path
       style="fill:#094bac;fill-opacity:1;stroke-width:0"
       d="m 101.98011,463.50367 c 0,0 17.60421,-10.41714 25.71417,-14.29812 11.38228,-5.44694 15.02348,-12.09499 34.18597,-12.37439 21.15805,-0.30849 37.85174,15.5038 37.85174,15.5038 l 22.38405,12.20285 41.56536,11.45834 -2.6712,22.37216 -47.13035,-3.36468 -18.28288,13.51631 c 0,0 -21.54657,9.10496 -33.63993,9.54081 -11.50529,0.41466 -37.28041,-11.75478 -37.28041,-11.75478 L 104.4687,492.2446 63.772588,497.4727 60.927921,476.84826 Z"
       id="path4473"
       sodipodi:nodetypes="ccsccccccsccccc" />
    <rect
       style="fill:#f1f1f1;fill-opacity:1;stroke-width:0"
       id="rect5200"
       width="31.433287"
       height="24.14114"
       x="267.51468"
       y="390.37589" />
    <rect
       style="fill:#106e7d;fill-opacity:1;stroke-width:0"
       id="rect6605"
       width="227.95467"
       height="65.306297"
       x="388.47314"
       y="398.55359" />
    <path
       id="path6330"
       style="fill:#5b2d07;fill-opacity:1;stroke-width:0"
       d="m 430.69066,401.49019 c -14.69349,-3e-5 -30.61123,14.5534 -31.05436,28.65666 -0.51488,16.38673 16.70092,30.83193 31.39461,30.8319 14.69369,4e-5 30.78659,-15.82392 30.78643,-30.13134 -1.3e-4,-14.30722 -16.43319,-29.35725 -31.12668,-29.35722 z m 0.2307,6.93718 c 12.92099,4e-5 23.3955,9.97966 23.39547,22.29012 2e-5,12.31046 -10.47448,22.29007 -23.39547,22.29011 -12.92099,-4e-5 -23.39549,-9.97965 -23.39547,-22.29011 -3e-5,-12.31046 10.47448,-22.29008 23.39547,-22.29012 z"
       sodipodi:nodetypes="ssssssssss" />
    <rect
       style="fill:#5b2d07;fill-opacity:1;stroke-width:0"
       id="rect6543"
       width="11.560384"
       height="19.741144"
       x="424.99341"
       y="406.88168" />
    <rect
       style="fill:#5b2d07;fill-opacity:1;stroke-width:0"
       id="rect6545"
       width="21.02121"
       height="12.121765"
       x="406.39294"
       y="425.17685" />
    <rect
       style="fill:#5b2d07;fill-opacity:1;stroke-width:0"
       id="rect6547"
       width="12.781936"
       height="16.401009"
       x="424.38553"
       y="437.46524" />
    <rect
       style="fill:#5b2d07;fill-opacity:1;stroke-width:0"
       id="rect6549"
       width="19.484344"
       height="11.512942"
       x="435.73938"
       y="426.03732" />
    <ellipse
       style="fill:#5b2d07;fill-opacity:1;stroke-width:0"
       id="path6603"
       cx="430.18301"
       cy="430.46695"
       rx="13.142841"
       ry="11.950473" />
    <path
       style="fill:#000000;fill-opacity:1;stroke-width:0"
       d="m 163.15472,447.81157 -37.85011,16.10623 -5.22636,26.56185 41.13254,19.00363 42.26435,-19.65915 -7.01007,-25.62967 z"
       id="path6713"
       sodipodi:nodetypes="ccccccc" />
    <rect
       style="fill:#000000;fill-opacity:1;stroke-width:0"
       id="rect8489"
       width="46.230988"
       height="30.743113"
       x="-13.353089"
       y="476.0358"
       transform="matrix(0.97389593,-0.22699496,0.15219019,0.98835123,0,0)"
       inkscape:transform-center-x="-2.222165"
       inkscape:transform-center-y="1.5200985" />
    <rect
       style="fill:#000000;fill-opacity:1;stroke-width:0"
       id="rect8491"
       width="36.196449"
       height="32.431969"
       x="259.63632"
       y="422.78094"
       transform="matrix(0.98726139,0.15910669,-0.08904378,0.99602771,0,0)" />
    <rect
       style="fill:#5b2d07;fill-opacity:1;stroke-width:0"
       id="rect10159"
       width="12.805007"
       height="36.217903"
       x="702.04718"
       y="156.59494"
       inkscape:export-filename="../779f728a/banner.png"
       inkscape:export-xdpi="96"
       inkscape:export-ydpi="96" />
    <rect
       style="fill:#5b2d07;fill-opacity:1;stroke-width:0"
       id="rect10159-2"
       width="12.805007"
       height="27.59432"
       x="794.35699"
       y="153.22513" />
    <rect
       style="fill:#5b2d07;fill-opacity:1;stroke-width:0"
       id="rect10159-9"
       width="12.805007"
       height="20.265358"
       x="893.45032"
       y="152.67133" />
    <rect
       style="fill:#083a42;fill-opacity:1;stroke-width:0"
       id="rect9999"
       width="339.79123"
       height="126.01067"
       x="633.85706"
       y="31.590208"
       inkscape:export-filename="../c1baab72/banner.png"
       inkscape:export-xdpi="96"
       inkscape:export-ydpi="96" />
    <rect
       style="fill:#721c24;fill-opacity:1;stroke-width:0"
       id="rect9945"
       width="18.776875"
       height="340.59293"
       x="630.67133"
       y="31.240126" />
    <rect
       style="fill:#abdee5;fill-opacity:1;stroke-width:0"
       id="rect10157"
       width="303.46967"
       height="99.115005"
       x="361.26398"
       y="489.56345" />
    <rect
       style="fill:#5b2d07;fill-opacity:1;stroke-width:0"
       id="rect10253"
       width="259.81525"
       height="9.5142107"
       x="615.66516"
       y="282.92328"
       transform="rotate(-7.5999801)" />
    <rect
       style="fill:#5b2d07;fill-opacity:1;stroke-width:0"
       id="rect10159-3"
       width="12.805007"
       height="44.680161"
       x="-257.50986"
       y="893.14557"
       inkscape:export-filename="../e522d802/banner2.png"
       inkscape:export-xdpi="96"
       inkscape:export-ydpi="96"
       transform="scale(-1,1)" />
    <rect
       style="fill:#5b2d07;fill-opacity:1;stroke-width:0"
       id="rect10159-2-6"
       width="12.805007"
       height="27.59432"
       x="-163.99229"
       y="891.66479"
       transform="scale(-1,1)" />
    <rect
       style="fill:#5b2d07;fill-opacity:1;stroke-width:0"
       id="rect10253-5"
       width="163.26172"
       height="9.462822"
       x="-391.90262"
       y="864.4812"
       transform="matrix(-0.97759973,-0.21047273,-0.08241008,0.9965985,0,0)"
       inkscape:export-filename="../e522d802/banner2.png"
       inkscape:export-xdpi="96"
       inkscape:export-ydpi="96" />
    <rect
       style="fill:#4f1319;fill-opacity:1;stroke-width:0"
       id="rect9945-3"
       width="18.776875"
       height="429.26093"
       x="-328.88574"
       y="776.25305"
       transform="scale(-1,1)" />
    <rect
       style="fill:#083a42;fill-opacity:1;stroke-width:0"
       id="rect9999-5"
       width="301.1066"
       height="276.29449"
       x="-356.125"
       y="618.12781"
       inkscape:export-filename="../c1baab72/banner.png"
       inkscape:export-xdpi="96"
       inkscape:export-ydpi="96"
       transform="scale(-1,1)" />
    <rect
       style="fill:#4f1319;stroke-width:0"
       id="rect777"
       width="37.691856"
       height="239.53302"
       x="645.91052"
       y="834.57471" />
  </g>
</svg>
